<?xml version="1.0" encoding="utf-8"?>
<!-- Generator: Adobe Illustrator 15.0.2, SVG Export Plug-In . SVG Version: 6.00 Build 0)  -->
<!DOCTYPE svg PUBLIC "-//W3C//DTD SVG 1.1//EN" "http://www.w3.org/Graphics/SVG/1.1/DTD/svg11.dtd">
<svg version="1.1" id="Layer_1" xmlns="http://www.w3.org/2000/svg" xmlns:xlink="http://www.w3.org/1999/xlink" x="0px" y="0px"
	 width="554px" height="441.969px" viewBox="0 0 554 441.969" enable-background="new 0 0 554 441.969" xml:space="preserve">
<g>
	<g>
		
			<line fill="none" stroke="#231F20" stroke-width="1.8551" stroke-miterlimit="10" x1="19.488" y1="53.011" x2="19.488" y2="55.793"/>
		
			<line fill="none" stroke="#231F20" stroke-width="1.8551" stroke-miterlimit="10" stroke-dasharray="5.6829,5.6829" x1="19.488" y1="61.476" x2="19.488" y2="297.318"/>
		
			<line fill="none" stroke="#231F20" stroke-width="1.8551" stroke-miterlimit="10" x1="19.488" y1="300.16" x2="19.488" y2="302.942"/>
	</g>
</g>
<g>
	<g>
		
			<line fill="none" stroke="#231F20" stroke-width="1.8551" stroke-miterlimit="10" x1="89.068" y1="53.011" x2="89.068" y2="55.793"/>
		
			<line fill="none" stroke="#231F20" stroke-width="1.8551" stroke-miterlimit="10" stroke-dasharray="5.6829,5.6829" x1="89.068" y1="61.476" x2="89.068" y2="297.318"/>
		
			<line fill="none" stroke="#231F20" stroke-width="1.8551" stroke-miterlimit="10" x1="89.068" y1="300.16" x2="89.068" y2="302.942"/>
	</g>
</g>
<g>
	<g>
		
			<line fill="none" stroke="#231F20" stroke-width="1.8551" stroke-miterlimit="10" x1="124.907" y1="53.011" x2="124.907" y2="55.793"/>
		
			<line fill="none" stroke="#231F20" stroke-width="1.8551" stroke-miterlimit="10" stroke-dasharray="5.6829,5.6829" x1="124.907" y1="61.476" x2="124.907" y2="297.318"/>
		
			<line fill="none" stroke="#231F20" stroke-width="1.8551" stroke-miterlimit="10" x1="124.907" y1="300.16" x2="124.907" y2="302.942"/>
	</g>
</g>
<g>
	<g>
		
			<line fill="none" stroke="#231F20" stroke-width="1.8551" stroke-miterlimit="10" x1="257.363" y1="53.011" x2="257.363" y2="55.793"/>
		
			<line fill="none" stroke="#231F20" stroke-width="1.8551" stroke-miterlimit="10" stroke-dasharray="5.6829,5.6829" x1="257.363" y1="61.476" x2="257.363" y2="297.318"/>
		
			<line fill="none" stroke="#231F20" stroke-width="1.8551" stroke-miterlimit="10" x1="257.363" y1="300.16" x2="257.363" y2="302.942"/>
	</g>
</g>
<g>
	<g>
		
			<line fill="none" stroke="#231F20" stroke-width="1.8551" stroke-miterlimit="10" x1="298.684" y1="53.011" x2="298.684" y2="55.793"/>
		
			<line fill="none" stroke="#231F20" stroke-width="1.8551" stroke-miterlimit="10" stroke-dasharray="5.6829,5.6829" x1="298.684" y1="61.476" x2="298.684" y2="297.318"/>
		
			<line fill="none" stroke="#231F20" stroke-width="1.8551" stroke-miterlimit="10" x1="298.684" y1="300.16" x2="298.684" y2="302.942"/>
	</g>
</g>
<g>
	<g>
		
			<line fill="none" stroke="#231F20" stroke-width="1.8551" stroke-miterlimit="10" x1="330.201" y1="53.011" x2="330.201" y2="55.793"/>
		
			<line fill="none" stroke="#231F20" stroke-width="1.8551" stroke-miterlimit="10" stroke-dasharray="5.6829,5.6829" x1="330.201" y1="61.476" x2="330.201" y2="297.318"/>
		
			<line fill="none" stroke="#231F20" stroke-width="1.8551" stroke-miterlimit="10" x1="330.201" y1="300.16" x2="330.201" y2="302.942"/>
	</g>
</g>
<g>
	<g>
		
			<line fill="none" stroke="#231F20" stroke-width="1.8551" stroke-miterlimit="10" x1="419.447" y1="53.011" x2="419.447" y2="55.793"/>
		
			<line fill="none" stroke="#231F20" stroke-width="1.8551" stroke-miterlimit="10" stroke-dasharray="5.6829,5.6829" x1="419.447" y1="61.476" x2="419.447" y2="297.318"/>
		
			<line fill="none" stroke="#231F20" stroke-width="1.8551" stroke-miterlimit="10" x1="419.447" y1="300.16" x2="419.447" y2="302.942"/>
	</g>
</g>
<rect x="25.98" y="132.822" fill="#FFFFFF" width="93.981" height="42.637"/>
<rect x="65.391" y="205.294" fill="#FFFFFF" width="122.801" height="45.596"/>
<rect y="369.004" fill="#DCDCDC" width="556.52" height="72.965"/>
<g>
	<g>
		
			<line fill="none" stroke="#231F20" stroke-width="1.8551" stroke-miterlimit="10" x1="19.488" y1="53.011" x2="501.701" y2="53.011"/>
		<g>
			<path fill="#231F20" d="M512.896,53.011c-5.269,1.955-11.805,5.29-15.855,8.822l3.19-8.822l-3.19-8.821
				C501.092,47.723,507.628,51.058,512.896,53.011z"/>
		</g>
	</g>
</g>
<rect x="449.506" y="30.796" fill="none" width="55.46" height="21.037"/>
<text transform="matrix(1 0 0 1 449.5059 47.6245)" font-family="'Georgia-Italic'" font-size="22.2608">time</text>
<text transform="matrix(1 0 0 1 127.5361 39.4561)" font-family="'HelveticaNeue-Medium'" font-size="18.5507">Model T’s</text>
<text transform="matrix(1 0 0 1 316.2891 39.4561)" font-family="'HelveticaNeue-Medium'" font-size="18.5507">Model A’s</text>
<rect y="2.35" fill="none" width="110.067" height="63.072"/>
<text transform="matrix(1 0 0 1 8.6587 15.5938)"><tspan x="0" y="0" font-family="'HelveticaNeue'" font-size="18.5507">Arrival time </tspan><tspan x="-0.158" y="22.261" font-family="'HelveticaNeue'" font-size="18.5507">(new order)</tspan></text>
<rect x="25.98" y="65.423" fill="none" width="55.031" height="37.072"/>
<text transform="matrix(1 0 0 1 36.5034 78.667)"><tspan x="0" y="0" font-family="'HelveticaNeue'" font-size="18.5507">wait </tspan><tspan x="-0.881" y="22.261" font-family="'HelveticaNeue'" font-size="18.5507">time</tspan></text>
<rect x="153.63" y="313.995" fill="none" width="254.344" height="37.072"/>
<text transform="matrix(1 0 0 1 158.332 327.2393)"><tspan x="0" y="0" font-family="'HelveticaNeue'" font-size="18.5507">gap between different orders: </tspan><tspan x="13.439" y="22.261" font-family="'HelveticaNeue-Bold'" font-size="18.5507">“context switching time”</tspan></text>
<rect x="32.166" y="136.534" fill="none" width="81.621" height="37.072"/>
<text transform="matrix(1 0 0 1 34.6704 149.7798)"><tspan x="0" y="0" font-family="'HelveticaNeue'" font-size="18.5507">response </tspan><tspan x="20.434" y="22.26" font-family="'HelveticaNeue'" font-size="18.5507">time</tspan></text>
<rect x="53.061" y="211.967" fill="none" width="167.081" height="40.78"/>
<text transform="matrix(1 0 0 1 70.6177 225.2129)"><tspan x="0" y="0" font-family="'HelveticaNeue'" font-size="18.5507">turnaround time </tspan><tspan x="23.559" y="22.26" font-family="'HelveticaNeue'" font-size="18.5507">(“latency”)</tspan></text>
<g>
	<rect x="144.765" y="379.556" fill="#0BABDD" width="48.206" height="17.435"/>
	<polygon fill="#FEAF54" points="207.193,396.99 166.768,396.99 180.565,379.556 207.193,379.556 	"/>
</g>
<text transform="matrix(1 0 0 1 213.376 393.2695)" font-family="'HelveticaNeue'" font-size="18.5507">= time spent making cars</text>
<text transform="matrix(1 0 0 1 111.2656 418.6211)" font-family="'HelveticaNeue'" font-size="18.5507">lighter color = production before first output</text>
<rect x="298.684" y="43.169" fill="#FEAF54" width="120.764" height="17.436"/>
<rect x="298.684" y="43.169" fill="#FFDFC0" width="31.518" height="17.436"/>
<rect x="89.069" y="43.169" fill="#0BABDD" width="168.295" height="17.436"/>
<rect x="89.068" y="43.169" fill="#77DBF2" width="35.839" height="17.436"/>
<g>
	<g>
		
			<line fill="none" stroke="#231F20" stroke-width="1.8551" stroke-miterlimit="10" x1="45.14" y1="39.456" x2="29.444" y2="44.507"/>
		<g>
			<path fill="#231F20" d="M24.116,46.222c2.208-1.737,4.808-4.326,6.195-6.628l-0.167,4.688l2.87,3.709
				C30.544,46.931,26.922,46.345,24.116,46.222z"/>
		</g>
	</g>
</g>
<g>
	<g>
		
			<line fill="none" stroke="#0BABDD" stroke-width="3.7101" stroke-miterlimit="10" x1="23.729" y1="109.914" x2="84.828" y2="109.914"/>
		<g>
			<polygon fill="#0BABDD" points="31.119,116.204 24.825,109.914 31.119,103.624 25.778,103.624 19.488,109.914 25.778,116.204 			
				"/>
		</g>
		<g>
			<polygon fill="#0BABDD" points="77.438,116.204 83.731,109.914 77.438,103.624 82.778,103.624 89.068,109.914 82.778,116.204 			
				"/>
		</g>
	</g>
</g>
<g>
	<g>
		
			<line fill="none" stroke="#231F20" stroke-width="3.7101" stroke-miterlimit="10" x1="260.706" y1="302.942" x2="294.443" y2="302.942"/>
		<g>
			<polygon fill="#231F20" points="268.097,309.232 261.803,302.942 268.097,296.652 262.756,296.652 256.466,302.942 
				262.756,309.232 			"/>
		</g>
		<g>
			<polygon fill="#231F20" points="287.053,309.232 293.347,302.942 287.053,296.652 292.394,296.652 298.684,302.942 
				292.394,309.232 			"/>
		</g>
	</g>
</g>
<g>
	<g>
		
			<line fill="none" stroke="#0BABDD" stroke-width="3.7101" stroke-miterlimit="10" x1="23.729" y1="180.406" x2="120.667" y2="180.406"/>
		<g>
			<polygon fill="#0BABDD" points="31.119,186.696 24.825,180.406 31.119,174.116 25.778,174.116 19.488,180.406 25.778,186.696 			
				"/>
		</g>
		<g>
			<polygon fill="#0BABDD" points="113.277,186.696 119.57,180.406 113.277,174.116 118.617,174.116 124.907,180.406 
				118.617,186.696 			"/>
		</g>
	</g>
</g>
<rect x="247.146" y="71.56" fill="#FFFFFF" width="93.981" height="42.637"/>
<rect x="253.332" y="75.272" fill="none" width="81.622" height="37.072"/>
<text transform="matrix(1 0 0 1 255.8359 88.5176)"><tspan x="0" y="0" font-family="'HelveticaNeue'" font-size="18.5507">response </tspan><tspan x="20.434" y="22.261" font-family="'HelveticaNeue'" font-size="18.5507">time</tspan></text>
<g>
	<g>
		
			<line fill="none" stroke="#FEAF54" stroke-width="3.7101" stroke-miterlimit="10" x1="261.603" y1="119.144" x2="325.961" y2="119.144"/>
		<g>
			<polygon fill="#FEAF54" points="268.993,125.434 262.699,119.144 268.993,112.854 263.652,112.854 257.362,119.144 
				263.652,125.434 			"/>
		</g>
		<g>
			<polygon fill="#FEAF54" points="318.57,125.434 324.864,119.144 318.57,112.854 323.911,112.854 330.201,119.144 
				323.911,125.434 			"/>
		</g>
	</g>
</g>
<g>
	<g>
		
			<line fill="none" stroke="#0BABDD" stroke-width="3.7101" stroke-miterlimit="10" x1="23.729" y1="255.216" x2="253.123" y2="255.216"/>
		<g>
			<polygon fill="#0BABDD" points="31.119,261.506 24.825,255.216 31.119,248.926 25.778,248.926 19.488,255.216 25.778,261.506 			
				"/>
		</g>
		<g>
			<polygon fill="#0BABDD" points="245.732,261.506 252.026,255.216 245.732,248.926 251.073,248.926 257.363,255.216 
				251.073,261.506 			"/>
		</g>
	</g>
</g>
<rect x="273.564" y="144.031" fill="#FFFFFF" width="122.8" height="45.596"/>
<rect x="261.235" y="150.705" fill="none" width="167.078" height="40.779"/>
<text transform="matrix(1 0 0 1 278.791 163.9492)"><tspan x="0" y="0" font-family="'HelveticaNeue'" font-size="18.5507">turnaround time </tspan><tspan x="23.559" y="22.262" font-family="'HelveticaNeue'" font-size="18.5507">(“latency”)</tspan></text>
<g>
	<g>
		
			<line fill="none" stroke="#FEAF54" stroke-width="3.7101" stroke-miterlimit="10" x1="261.604" y1="193.953" x2="415.207" y2="193.953"/>
		<g>
			<polygon fill="#FEAF54" points="268.995,200.243 262.701,193.953 268.995,187.663 263.654,187.663 257.364,193.953 
				263.654,200.243 			"/>
		</g>
		<g>
			<polygon fill="#FEAF54" points="407.816,200.243 414.11,193.953 407.816,187.663 413.157,187.663 419.447,193.953 
				413.157,200.243 			"/>
		</g>
	</g>
</g>
</svg>
